<svg xmlns="http://www.w3.org/2000/svg" viewBox="0 0 780.1 907.04">
  <ellipse cx="394.01" cy="443.32" rx="257" ry="260.5" data-name="Layer 3"/>
  <g data-name="Layer 2" fill="#404040">
    <path d="M235.01 185.82l-11 43s-129-32-177 29c0 0-62 65 70 211l-3 3s-158-152-102-247c0 0 30-85 223-39zM776.01 231.82c-39-123-266-47-266-47v4s198-57 218 56c0 0 15 59-71 164l30 29s116.07-120.63 89-206zM544.01 681.82s-53.76 196-143 175c-17-4-36-14-36-14s-1.72-1.19-12.21-12.42c-11.96-12.79-32.71-40.38-66.79-125.58l-41 11s46 186 143 191c0 0 104 16 160-224z"/>
    <path d="M107.38 428.37c.84-.92 3.21 0 3.21 0a2.31 2.31 0 0 1 .2 3c-191.78 257.45 38.22 242.45 38.22 242.45 230.08-9.51 441.18-198 461.42-216.53a2.28 2.28 0 0 1 3.14 0l28.54 27.65a2.3 2.3 0 0 1-.2 3.47C180.63 846.15 22.01 682.82 24.37 686.21c0 0-84.36-74.39 83.01-257.84z"/>
    <path d="M229.01 650.82l40-9c-.09.35-73.23-479.11 113-591 0 0 88-55 157 157l4-3s-57-270-204-190c1.24-3-179 117-110 636z"/>
    <path d="M297.01 203.82l-10 40s427 162 442 397c0 0 3 119-227 61l-1 5s244 78 276-56c0 0 20-83-82.54-189.53-71.64-74.47-177.46-178.47-397.46-257.47z"/>
  </g>
</svg>
